# xmcd
#
# Track frame offsets:
#	150
#	10875
#	22879
#	37507
#	47592
#	60200
#	74259
#	87264
#	100589
#	116547
#	128040
#	138512
#	150435
#	161965
#	175207
#	188069
#	199634
#	211033
#	221924
#	237761
#	250556
#	262557
#	272830
#	283153
#	297991
#	309721
#
# Disc length: 4313 seconds
#
# Revision: 2
# Processed by: cddbd v1.4PL0 Copyright (c) Steve Scherf et al.
# Submitted via: audiograbber 1.82.00
#
DISCID=5c10d71a
DTITLE=As good as it gets - Rhythm and Blues - CD 1
DYEAR=2000
DGENRE=Blues
TTITLE0=Pee Wee Crayton - Do Unto Others
TTITLE1=T- Bone Walker - Lonesome Women Blues
TTITLE2=Muddy Waters - Rock Me
TTITLE3=Snooks Eaglin - Nobody Knows
TTITLE4=Floyd Dixon With Mari Jones and Johnny Moore's Three - Real Lovin' Mama
TTITLE5=Jimmy Rogers - That's All Right
TTITLE6=John Lee Hooker - Johnny Lee's Original Boogie
TTITLE7=Amos Milburn - After Midnite
TTITLE8=George "Harmonica" Smith - Just A Feelin'
TTITLE9=Guitar Slim and His Playboys - New Arrival
TTITLE10=Snooks Eaglin - Travellin' Mood
TTITLE11=T- Bone Walker - That's Better For Me
TTITLE12=Jimmy Rogers - Dorcie Belle
TTITLE13=Muddy Waters - Blow Wind Blow
TTITLE14=Memphis Slim - Love Me Baby
TTITLE15=Pee Wee Crayton - You Know - Yeah
TTITLE16=Clarence "Gatemouth" Brown - Without My Baby
TTITLE17=Smokey Hogg - When I've Been Drinkin'
TTITLE18=Shakey Jake - Respect Me Baby
TTITLE19=John Lee Hooker - Long Long Way From Home
TTITLE20=Clarence "Bon Ton" Garlow - Dreaming
TTITLE21=Jimmy Rogers - House Rocker
TTITLE22=Snooks Eaglin - (Mama) Talk To Your Daughter
TTITLE23=T- Bone Walker With Freddie Slack - I Got A Break Baby
TTITLE24=Lowell Fulson - Blues Never Fail
TTITLE25=John Lee Hooker - My Baby She's Long and Tall
EXTD=Disky - DO999822
EXTT0=
EXTT1=
EXTT2=
EXTT3=
EXTT4=
EXTT5=
EXTT6=
EXTT7=
EXTT8=
EXTT9=
EXTT10=
EXTT11=
EXTT12=
EXTT13=
EXTT14=
EXTT15=
EXTT16=
EXTT17=
EXTT18=
EXTT19=
EXTT20=
EXTT21=
EXTT22=
EXTT23=
EXTT24=
EXTT25=
PLAYORDER=
